#N canvas 93 29 326 398 10;
#X obj 167 204 / 4;
#X obj 167 154 pow 2;
#X obj 151 265 +;
#X obj 95 159 + 1;
#X obj 95 131 trigger f f;
#X obj 95 204 * 5;
#X floatatom 95 182 5 0 0 0 - - -;
#X floatatom 95 227 5 0 0 0 - - -;
#X floatatom 167 181 5 0 0 0 - - -;
#X floatatom 167 226 5 0 0 0 - - -;
#X floatatom 151 287 5 0 0 0 - - -;
#X floatatom 95 108 5 0 0 0 - - -;
#X text 36 352 Credit to Andy Farnell's "Designing Sound";
#X connect 0 0 9 0;
#X connect 1 0 8 0;
#X connect 2 0 10 0;
#X connect 3 0 6 0;
#X connect 4 0 3 0;
#X connect 4 1 1 0;
#X connect 5 0 7 0;
#X connect 6 0 5 0;
#X connect 7 0 2 0;
#X connect 8 0 0 0;
#X connect 9 0 2 1;
#X connect 11 0 4 0;
