#N canvas 623 162 817 512 10;
#X obj 50 96 osc~;
#X obj 53 255 dac~;
#X obj 109 189 tabwrite~ sine;
#X obj 112 161 metro 100;
#X obj 113 138 tgl 15 0 empty empty empty 17 7 0 10 -262144 -1 -1 0
1;
#X obj 53 24 hsl 128 15 0 5000 0 0 empty empty empty -2 -8 0 10 -262144
-1 -1 0 1;
#N canvas 0 22 450 300 (subpatch) 0;
#X array sine 1000 float 0;
#X coords 0 1 999 -1 200 100 1;
#X restore 462 91 graph;
#X text 187 407 http://en.flossmanuals.net/pure-data/audio-tutorials/oscillators/
;
#X text 195 147 Write to table every 100 MS;
#X connect 0 0 1 0;
#X connect 0 0 1 1;
#X connect 0 0 2 0;
#X connect 3 0 2 0;
#X connect 4 0 3 0;
#X connect 5 0 0 0;
