#N canvas 266 218 1174 480 10;
#X obj 205 100 osc~ 440;
#X obj 206 301 *~;
#X obj 205 355 dac~;
#X obj 247 259 vline~;
#X text 379 427 http://en.flossmanuals.net/pure-data/audio-tutorials/amplifier/
;
#X msg 247 216 1 1000 \, 0.7 1000 1000 \, 0 1000 3000;
#X text 554 107 Attack = 1000ms (1 1000) Decay = 1000ms after pause
of 1000ms (0.7 1000 1000) Sustain = 1000 ms after pause of 2000 ms
Release = 1000ms after pause of 3000ms;
#X connect 0 0 1 0;
#X connect 1 0 2 0;
#X connect 1 0 2 1;
#X connect 3 0 1 1;
#X connect 5 0 3 0;
