#N canvas 878 141 533 645 10;
#X obj 58 101 metro;
#X obj 85 70 nbx 5 14 -1e+37 1e+37 0 0 empty empty empty 0 -8 0 10
-262144 -1 -1 200 256;
#X obj 58 40 tgl 15 0 empty empty empty 17 7 0 10 -262144 -1 -1 1 1
;
#X obj 58 144 f;
#X obj 116 143 + 1;
#X obj 58 188 mod 16;
#X obj 58 229 hradio 15 1 0 16 empty empty empty 0 -8 0 10 -262144
-1 -1 5;
#X obj 113 364 vsl 15 128 0 127 0 0 empty empty empty 0 -9 0 10 -262144
-1 -1 12700 1;
#X obj 60 535 f;
#X floatatom 60 577 5 0 0 0 - - -;
#X obj 58 266 select 0 1 2 3 4 5 6 7 8 9 10 11 12 13 14 15 16;
#X text 111 295 [select] sends a "bang" to the outlet which matches
the number sent to the inlet;
#X obj 78 164 f;
#X text 147 614 http://en.flossmanuals.net/pure-data/audio-tutorials/step-sequencer/
;
#X text 161 409 [f] stores a Floating Point Number on its right side
("cold") inlet \, and outputs the number when it gets a "bang" on the
left side ("hot") inlet. This means you can change the value of the
[vslider] at any time \, and it will only be output from [f] when the
counter above is at 0;
#X connect 0 0 3 0;
#X connect 1 0 0 1;
#X connect 2 0 0 0;
#X connect 3 0 4 0;
#X connect 3 0 5 0;
#X connect 4 0 3 1;
#X connect 5 0 6 0;
#X connect 6 0 10 0;
#X connect 7 0 8 1;
#X connect 8 0 9 0;
#X connect 10 0 8 0;
