#N canvas 497 138 600 427 10;
#X obj 31 226 dac~;
#X obj 90 132 metro 100;
#X obj 91 109 tgl 15 0 empty empty empty 17 7 0 10 -262144 -1 -1 0
1;
#X obj 28 67 phasor~;
#X obj 87 160 tabwrite~ sawtooth;
#X obj 31 -6 hsl 128 15 0 5000 0 0 empty empty empty -2 -8 0 10 -262144
-1 -1 0 1;
#N canvas 0 22 450 300 (subpatch) 0;
#X array sawtooth 1000 float 0;
#X coords 0 1 999 -1 200 100 1;
#X restore 320 91 graph;
#X text 113 319 http://en.flossmanuals.net/pure-data/audio-tutorials/oscillators/
;
#X connect 1 0 4 0;
#X connect 2 0 1 0;
#X connect 3 0 0 0;
#X connect 3 0 0 1;
#X connect 3 0 4 0;
#X connect 5 0 3 0;
