#N canvas 497 65 881 561 10;
#X obj 54 239 dac~;
#X obj 115 165 metro 100;
#X obj 116 142 tgl 15 0 empty empty empty 17 7 0 10 -262144 -1 -1 0
1;
#X obj 52 100 expr~ $v1 > 0.5;
#X obj 112 193 tabwrite~ square;
#X obj 52 74 phasor~;
#X obj 55 16 hsl 128 15 0 5000 0 0 empty empty empty -2 -8 0 10 -262144
-1 -1 0 1;
#N canvas 0 22 450 300 (subpatch) 0;
#X array square 1000 float 0;
#X coords 0 1 999 -1 200 100 1;
#X restore 595 86 graph;
#X text 109 338 http://en.flossmanuals.net/pure-data/audio-tutorials/oscillators/
;
#X text 170 102 Modifies sawtooth oscillator (checks if value is greater
then 0.5. If so \, outputs 1 If not \, outputs 0;
#X connect 1 0 4 0;
#X connect 2 0 1 0;
#X connect 3 0 0 0;
#X connect 3 0 0 1;
#X connect 3 0 4 0;
#X connect 5 0 3 0;
#X connect 6 0 5 0;
