#N canvas 310 62 869 570 10;
#X obj 32 32 hsl 128 15 0 5000 0 0 empty empty empty -2 -8 0 10 -262144
-1 -1 0 1;
#X obj 222 30 hsl 128 15 0 5000 0 0 empty empty empty -2 -8 0 10 -262144
-1 -1 0 1;
#X obj 30 143 *~ 0.5;
#X obj 33 266 dac~;
#X obj 86 234 tabwrite~ additive;
#X obj 101 206 metro 100;
#X obj 101 180 tgl 15 0 empty empty empty 17 7 0 10 -262144 -1 -1 0
1;
#X text 263 419 http://en.flossmanuals.net/pure-data/audio-tutorials/additive-synthesis/
;
#X text 97 143 Add the two signals together and multiple by 0.5 to
prevent clipping.;
#X text 28 8 SAWTOOTH WAVE;
#X text 218 7 SINE WAVE;
#N canvas 0 22 450 300 (subpatch) 0;
#X array additive 1000 float 0;
#X coords 0 1 999 -1 200 100 1;
#X restore 591 147 graph;
#X obj 29 93 phasor~ 200;
#X obj 219 92 osc~ 201;
#X text 204 373;
#X text 288 332;
#X connect 0 0 12 0;
#X connect 1 0 13 0;
#X connect 2 0 3 0;
#X connect 2 0 3 1;
#X connect 2 0 4 0;
#X connect 5 0 4 0;
#X connect 6 0 5 0;
#X connect 12 0 2 0;
#X connect 13 0 2 0;
