#N canvas 316 22 1099 691 10;
#X obj 315 344 dac~;
#X obj 302 97 noise~;
#X obj 161 193 lop~;
#X obj 452 190 hip~;
#X floatatom 205 167 5 0 0 0 - - -;
#X floatatom 494 170 5 0 0 0 - - -;
#X obj 162 263 *~;
#X obj 453 279 *~;
#X floatatom 203 243 5 0 0 0 - - -;
#X floatatom 496 252 5 0 0 0 - - -;
#X obj 307 586 tabwrite~ subtractive;
#N canvas 0 22 450 300 (subpatch) 0;
#X array subtractive 1000 float 0;
#X coords 0 1 999 -1 200 100 1;
#X restore 763 200 graph;
#X obj 385 540 metro 100;
#X obj 386 517 tgl 15 0 empty empty empty 17 7 0 10 -262144 -1 -1 0
1;
#X text 21 192 Low-pass filter;
#X text 541 194 High-pass filter;
#X text 373 96 White noise;
#X connect 1 0 2 0;
#X connect 1 0 3 0;
#X connect 2 0 6 0;
#X connect 2 0 10 0;
#X connect 3 0 7 0;
#X connect 3 0 10 0;
#X connect 4 0 2 1;
#X connect 5 0 3 1;
#X connect 6 0 0 0;
#X connect 7 0 0 1;
#X connect 8 0 6 1;
#X connect 9 0 7 1;
#X connect 12 0 10 0;
#X connect 13 0 12 0;
