#N canvas 348 109 887 550 10;
#X obj 42 42 hsl 128 15 0 5000 0 0 empty empty empty -2 -8 0 10 -262144
-1 -1 0 1;
#X obj 313 40 hsl 128 15 0 5000 0 0 empty empty empty -2 -8 0 10 -262144
-1 -1 0 1;
#X obj 39 166 *~;
#X obj 39 103 osc~;
#X obj 310 102 phasor~;
#X obj 40 265 dac~;
#X obj 78 227 tabwrite~ am;
#X obj 87 201 metro 100;
#X obj 87 179 tgl 15 0 empty empty empty 17 7 0 10 -262144 -1 -1 0
1;
#N canvas 0 22 450 300 (subpatch) 0;
#X array am 1000 float 0;
#X coords 0 1 999 -1 200 100 1;
#X restore 571 155 graph;
#X text 253 417 http://en.flossmanuals.net/pure-data/audio-tutorials/amplitude-modulation/
;
#X text 81 103 "source" oscillator;
#X text 388 103 Modulating oscillator;
#X connect 0 0 3 0;
#X connect 1 0 4 0;
#X connect 2 0 5 0;
#X connect 2 0 5 1;
#X connect 2 0 6 0;
#X connect 3 0 2 0;
#X connect 4 0 2 1;
#X connect 7 0 6 0;
#X connect 8 0 7 0;
