#N canvas 37 23 1231 820 10;
#X declare -lib mrpeach;
#X obj 30 -42 import mrpeach;
#X obj 145 75 udpreceive 9000;
#X obj 145 108 unpackOSC;
#X obj 145 140 routeOSC /wii;
#X obj 145 194 routeOSC /1;
#X obj 145 332 routeOSC /accel;
#X obj 146 366 routeOSC /pry;
#X obj 146 395 routeOSC /1;
#X obj 324 393 routeOSC /3;
#X obj 229 397 routeOSC /2;
#X floatatom 145 476 5 0 0 0 - - -;
#X floatatom 228 475 5 0 0 0 - - -;
#X floatatom 329 476 5 0 0 0 - - -;
#X text 143 518 Roll;
#X text 224 517 Pitch;
#X text 324 519 Yaw;
#X obj 643 503 freeverb~;
#X msg 709 236 roomsize \$1;
#X msg 707 334 damping \$1;
#X msg 706 435 wet \$1;
#X msg 705 456 dry \$1;
#X msg 673 97 freeze \$1;
#X msg 673 139 bypass \$1;
#X obj 640 42 adc~;
#X obj 644 566 dac~;
#X obj 673 79 tgl 15 0 empty empty empty 17 7 0 10 -262144 -1 -1 0
1;
#X obj 673 119 tgl 15 0 empty empty empty 17 7 0 10 -262144 -1 -1 0
1;
#X obj 725 378 hsl 128 15 0 1 0 0 empty empty empty -2 -8 0 10 -4032
-1 -1 0 1;
#X floatatom 772 403 5 0 0 0 - - -;
#X obj 766 439 expr 1-$f1;
#X obj 713 183 hsl 128 15 0 1 0 0 empty empty empty -2 -8 0 10 -4034
-1 -1 0 1;
#X obj 715 280 hsl 128 15 0 1 0 0 empty empty empty -2 -8 0 10 -260097
-1 -1 0 1;
#X floatatom 726 305 5 0 0 0 - - -;
#X floatatom 737 211 5 0 0 0 - - -;
#X text 764 85 Freeze the reverb;
#X text 764 145 the dry signal pass through.;
#X text 763 132 Trun the reverb off and let;
#X text 871 392 Wet signal to dry signal ratio;
#X text 871 408 (0 : all dry \, 1 : all wet);
#X text 878 295 Damping level;
#X text 864 198 Roomize;
#X obj 155 232 routeOSC /button;
#X obj 270 270 routeOSC /A;
#X obj 376 271 routeOSC /B;
#X text 693 43 Audio Input;
#X text 664 624 Reverb effect section is from;
#X text 264 231 WiiMote Buttons;
#X text 268 332 WiiMote Movement;
#X text 143 -41 Imports OSC objects;
#X text 249 74 Receive messages from WiiMote from port 9000;
#X text 665 643 Pierre Massat \, GuitarExtended \, 2012 https://guitarextended.wordpress.com/2012/01/24/reverb-effect-in-pure-data/
;
#X text 229 111 comment;
#X connect 1 0 2 0;
#X connect 2 0 3 0;
#X connect 3 0 4 0;
#X connect 4 0 5 0;
#X connect 4 0 41 0;
#X connect 5 0 6 0;
#X connect 6 0 7 0;
#X connect 6 0 9 0;
#X connect 6 0 8 0;
#X connect 7 0 10 0;
#X connect 8 0 12 0;
#X connect 9 0 11 0;
#X connect 10 0 30 0;
#X connect 11 0 31 0;
#X connect 12 0 27 0;
#X connect 16 0 24 0;
#X connect 16 0 24 1;
#X connect 17 0 16 0;
#X connect 18 0 16 0;
#X connect 19 0 16 0;
#X connect 20 0 16 0;
#X connect 21 0 16 0;
#X connect 22 0 16 0;
#X connect 23 0 16 0;
#X connect 25 0 21 0;
#X connect 26 0 22 0;
#X connect 27 0 28 0;
#X connect 27 0 19 0;
#X connect 27 0 29 0;
#X connect 29 0 20 0;
#X connect 30 0 17 0;
#X connect 30 0 33 0;
#X connect 31 0 18 0;
#X connect 31 0 32 0;
#X connect 41 0 42 0;
#X connect 41 0 43 0;
#X connect 42 0 25 0;
#X connect 43 0 26 0;
