#N canvas 670 22 770 707 10;
#X obj 233 112 cnv 15 100 22 empty empty empty 20 12 0 14 -253938 -66577
0;
#X obj 22 90 cnv 15 60 22 empty empty empty 20 12 0 14 -253938 -66577
0;
#N canvas 146 163 525 433 serin 0;
#X obj 180 61 cnv 15 15 15 empty \$0-number-canvas 3 4 8 0 14 -233017
-1 0;
#X obj 200 225 s \$0-number-canvas;
#X obj 60 61 hradio 15 1 1 8 empty empty empty 0 -6 0 8 -225271 -1
-1 3;
#X obj 60 13 inlet;
#X msg 200 202 label \$1;
#X obj 200 180 makefilename %d;
#X obj 59 108 int;
#X msg 59 206 open \$1;
#X obj 59 377 outlet;
#X msg 201 306 set \$1 \$2;
#X obj 59 266 trigger bang anything;
#X obj 201 286 list;
#X obj 383 383 outlet;
#X obj 384 22 netreceive 34567;
#X obj 477 43 tgl 15 0 empty empty empty 0 -6 0 10 -262144 -1 -1 0
1;
#X obj 384 41 bng 15 250 50 0 empty empty empty 0 -6 0 10 -262144 -1
-1;
#X obj 187 24 delay 15000;
#X text 345 379 close;
#X text 209 4 for open/close automation in Makefile;
#X obj 184 95 bang;
#X obj 184 137 send ARDUINO_TEST_RESET;
#X msg 184 116 set 0;
#X connect 2 0 6 0;
#X connect 2 0 19 0;
#X connect 3 0 2 0;
#X connect 4 0 1 0;
#X connect 5 0 4 0;
#X connect 6 0 5 0;
#X connect 6 0 7 0;
#X connect 7 0 10 0;
#X connect 9 0 8 0;
#X connect 10 0 8 0;
#X connect 10 1 11 0;
#X connect 11 0 9 0;
#X connect 13 0 15 0;
#X connect 13 1 14 0;
#X connect 15 0 16 0;
#X connect 15 0 12 0;
#X connect 16 0 2 0;
#X connect 19 0 21 0;
#X connect 21 0 20 0;
#X coords 0 -1 1 1 136 17 1 60 60;
#X restore 28 69 pd serin;
#X text 25 51 serial port #;
#X msg 88 92 close;
#X msg 121 132 info;
#X msg 121 152 version;
#X obj 121 389 route 0 1 2 3 4 5 6 7;
#X obj 397 453 route 0 1 2 3 4 5 6 7 8 9 10 11 12 13;
#X obj 121 292 arduino 1;
#X msg 121 192 devices;
#X msg 121 172 firmware;
#N canvas 0 22 450 300 STRING 0;
#X obj 48 13 inlet;
#X obj 51 93 moocow/string2any 32 -1;
#X obj 51 154 print STRING;
#X connect 0 0 1 0;
#X connect 1 0 2 0;
#X restore 396 409 pd STRING;
#N canvas 205 22 593 390 strings 0;
#X obj -178 287 outlet;
#X obj -142 101 moocow/any2string;
#X symbolatom -92 48 10 0 0 0 - - -;
#X obj -119 179 pddp/print;
#X obj -92 68 list trim;
#X msg -175 39 test;
#X msg -139 40 TEST;
#X obj -142 130 cyclone/prepend string;
#X obj -313 102 moocow/any2string;
#X symbolatom -263 49 10 0 0 0 - - -;
#X obj -314 202 pddp/print;
#X obj -263 69 list trim;
#X msg -346 40 test;
#X msg -310 41 TEST;
#X obj -313 153 cyclone/prepend sysex;
#X obj -313 131 cyclone/prepend 40;
#X msg 66 117 samplingInterval \$1;
#X obj 69 93 hsl 128 15 0 127 0 0 empty empty empty -2 -8 0 10 -262144
-1 -1 0 1;
#X floatatom 27 117 5 0 0 0 - - -;
#X connect 1 0 7 0;
#X connect 2 0 4 0;
#X connect 4 0 1 0;
#X connect 5 0 1 0;
#X connect 6 0 1 0;
#X connect 7 0 3 0;
#X connect 7 0 0 0;
#X connect 8 0 15 0;
#X connect 9 0 11 0;
#X connect 11 0 8 0;
#X connect 12 0 8 0;
#X connect 13 0 8 0;
#X connect 14 0 0 0;
#X connect 14 0 10 0;
#X connect 15 0 14 0;
#X connect 16 0 0 0;
#X connect 17 0 16 0;
#X connect 17 0 18 0;
#X restore 183 245 pd strings and special messages;
#N canvas 0 22 450 300 sysex 0;
#X obj 139 19 inlet;
#X obj 127 109 moocow/string2any 32 -1;
#X obj 127 170 print STRING;
#X obj 97 55 list split 1;
#X obj 40 109 print COMMAND;
#X obj 210 54 print sysex;
#X connect 0 0 3 0;
#X connect 0 0 5 0;
#X connect 1 0 2 0;
#X connect 3 0 4 0;
#X connect 3 1 1 0;
#X restore 461 409 pd sysex;
#N canvas 419 605 446 317 pinMode 0;
#X obj 94 267 outlet;
#X obj 122 100 vradio 10 1 0 6 THIS_HIDES_THE_OUTLET ARDUINO_TEST_RESET
2 2 -8 0 10 -261682 -1 -1 0;
#X obj 132 100 vradio 10 1 0 6 THIS_HIDES_THE_OUTLET ARDUINO_TEST_RESET
3 2 -8 0 10 -261682 -1 -1 0;
#X obj 142 100 vradio 10 1 0 6 THIS_HIDES_THE_OUTLET ARDUINO_TEST_RESET
4 2 -8 0 10 -261682 -1 -1 0;
#X obj 152 100 vradio 10 1 0 6 THIS_HIDES_THE_OUTLET ARDUINO_TEST_RESET
5 2 -8 0 10 -261682 -1 -1 0;
#X obj 162 100 vradio 10 1 0 6 THIS_HIDES_THE_OUTLET ARDUINO_TEST_RESET
6 2 -8 0 10 -261682 -1 -1 0;
#X obj 172 100 vradio 10 1 0 6 THIS_HIDES_THE_OUTLET ARDUINO_TEST_RESET
7 2 -8 0 10 -261682 -1 -1 0;
#X obj 182 100 vradio 10 1 0 6 THIS_HIDES_THE_OUTLET ARDUINO_TEST_RESET
8 2 -8 0 10 -261682 -1 -1 0;
#X obj 192 100 vradio 10 1 0 6 THIS_HIDES_THE_OUTLET ARDUINO_TEST_RESET
9 2 -8 0 10 -261682 -1 -1 0;
#X obj 202 100 vradio 10 1 0 6 THIS_HIDES_THE_OUTLET ARDUINO_TEST_RESET
10 0 -8 0 8 -261682 -1 -1 0;
#X obj 212 100 vradio 10 1 0 6 THIS_HIDES_THE_OUTLET ARDUINO_TEST_RESET
11 0 -8 0 8 -261682 -1 -1 0;
#X obj 222 100 vradio 10 1 0 6 THIS_HIDES_THE_OUTLET ARDUINO_TEST_RESET
12 0 -8 0 8 -261682 -1 -1 0;
#X obj 232 100 vradio 10 1 0 6 THIS_HIDES_THE_OUTLET ARDUINO_TEST_RESET
13 0 -8 0 8 -261682 -1 -1 0;
#X obj 242 100 vradio 10 1 0 6 THIS_HIDES_THE_OUTLET ARDUINO_TEST_RESET
14 0 -8 0 8 -261682 -1 -1 0;
#X obj 252 100 vradio 10 1 0 6 THIS_HIDES_THE_OUTLET ARDUINO_TEST_RESET
15 0 -8 0 8 -261682 -1 -1 0;
#X obj 262 100 vradio 10 1 0 6 THIS_HIDES_THE_OUTLET ARDUINO_TEST_RESET
16 0 -8 0 8 -261682 -1 -1 0;
#X obj 272 100 vradio 10 1 0 6 THIS_HIDES_THE_OUTLET ARDUINO_TEST_RESET
17 0 -8 0 8 -261682 -1 -1 0;
#X obj 282 100 vradio 10 1 0 6 THIS_HIDES_THE_OUTLET ARDUINO_TEST_RESET
18 0 -8 0 8 -261682 -1 -1 0;
#X obj 292 100 vradio 10 1 0 6 THIS_HIDES_THE_OUTLET ARDUINO_TEST_RESET
19 0 -8 0 8 -261682 -1 -1 0;
#X obj 302 100 vradio 10 1 0 6 THIS_HIDES_THE_OUTLET ARDUINO_TEST_RESET
20 0 -8 0 8 -261682 -1 -1 0;
#X obj 312 100 vradio 10 1 0 6 THIS_HIDES_THE_OUTLET ARDUINO_TEST_RESET
21 0 -8 0 8 -261682 -1 -1 0;
#N canvas 72 484 1069 446 send-to-arduino---------------------- 0;
#X obj 49 14 inlet;
#X obj 89 14 inlet;
#X obj 128 14 inlet;
#X obj 168 14 inlet;
#X obj 208 14 inlet;
#X obj 248 14 inlet;
#X obj 287 14 inlet;
#X obj 327 14 inlet;
#X obj 368 13 inlet;
#X obj 408 13 inlet;
#X obj 447 13 inlet;
#X obj 487 13 inlet;
#X obj 527 13 inlet;
#X msg 49 56 pinMode 0 \$1;
#X msg 89 78 pinMode 1 \$1;
#X msg 128 100 pinMode 2 \$1;
#X msg 168 120 pinMode 3 \$1;
#X msg 208 52 pinMode 4 \$1;
#X msg 248 74 pinMode 5 \$1;
#X msg 287 96 pinMode 6 \$1;
#X msg 327 116 pinMode 7 \$1;
#X msg 368 48 pinMode 8 \$1;
#X msg 408 70 pinMode 9 \$1;
#X msg 447 92 pinMode 10 \$1;
#X msg 487 112 pinMode 11 \$1;
#X msg 527 40 pinMode 12 \$1;
#X obj 566 13 inlet;
#X msg 566 60 pinMode 13 \$1;
#X obj 607 13 inlet;
#X obj 647 13 inlet;
#X obj 687 13 inlet;
#X obj 726 13 inlet;
#X obj 767 13 inlet;
#X obj 807 13 inlet;
#X obj 847 13 inlet;
#X obj 886 13 inlet;
#X msg 607 92 pinMode 14 \$1;
#X msg 647 112 pinMode 15 \$1;
#X msg 687 40 pinMode 16 \$1;
#X msg 726 60 pinMode 17 \$1;
#X msg 767 92 pinMode 18 \$1;
#X msg 807 112 pinMode 19 \$1;
#X msg 847 40 pinMode 20 \$1;
#X msg 886 60 pinMode 21 \$1;
#X obj 927 13 inlet;
#X obj 967 13 inlet;
#X msg 927 92 pinMode 22 \$1;
#X msg 967 112 pinMode 23 \$1;
#X obj 521 427 outlet;
#X obj 481 403 trigger bang anything;
#X obj 481 358 list prepend set;
#X obj 481 380 list trim;
#X obj 481 199 list;
#X obj 481 221 unpack symbol float float;
#X obj 481 331 pack symbol float symbol;
#X obj 622 311 symbol;
#X msg 659 284 analog;
#X msg 707 284 pwm;
#X msg 737 284 servo;
#X obj 739 364 list trim;
#X obj 739 341 list prepend WARNING Unsupported pin mode:;
#X obj 739 386 print [arduino];
#X msg 568 284 input;
#X msg 609 284 output;
#X obj 628 240 - 1;
#X obj 628 259 select 0 1 2 3 4 -1;
#X text 757 258 (-1 == NONE);
#X connect 0 0 13 0;
#X connect 1 0 14 0;
#X connect 2 0 15 0;
#X connect 3 0 16 0;
#X connect 4 0 17 0;
#X connect 5 0 18 0;
#X connect 6 0 19 0;
#X connect 7 0 20 0;
#X connect 8 0 21 0;
#X connect 9 0 22 0;
#X connect 10 0 23 0;
#X connect 11 0 24 0;
#X connect 12 0 25 0;
#X connect 13 0 52 0;
#X connect 14 0 52 0;
#X connect 15 0 52 0;
#X connect 16 0 52 0;
#X connect 17 0 52 0;
#X connect 18 0 52 0;
#X connect 19 0 52 0;
#X connect 20 0 52 0;
#X connect 21 0 52 0;
#X connect 22 0 52 0;
#X connect 23 0 52 0;
#X connect 24 0 52 0;
#X connect 25 0 52 0;
#X connect 26 0 27 0;
#X connect 27 0 52 0;
#X connect 28 0 36 0;
#X connect 29 0 37 0;
#X connect 30 0 38 0;
#X connect 31 0 39 0;
#X connect 32 0 40 0;
#X connect 33 0 41 0;
#X connect 34 0 42 0;
#X connect 35 0 43 0;
#X connect 36 0 52 0;
#X connect 37 0 52 0;
#X connect 38 0 52 0;
#X connect 39 0 52 0;
#X connect 40 0 52 0;
#X connect 41 0 52 0;
#X connect 42 0 52 0;
#X connect 43 0 52 0;
#X connect 44 0 46 0;
#X connect 45 0 47 0;
#X connect 46 0 52 0;
#X connect 47 0 52 0;
#X connect 49 0 48 0;
#X connect 49 1 48 0;
#X connect 50 0 51 0;
#X connect 51 0 49 0;
#X connect 52 0 53 0;
#X connect 53 0 54 0;
#X connect 53 1 54 1;
#X connect 53 2 64 0;
#X connect 54 0 50 0;
#X connect 55 0 54 2;
#X connect 56 0 55 0;
#X connect 57 0 55 0;
#X connect 58 0 55 0;
#X connect 59 0 61 0;
#X connect 60 0 59 0;
#X connect 62 0 55 0;
#X connect 63 0 55 0;
#X connect 64 0 65 0;
#X connect 65 0 62 0;
#X connect 65 1 63 0;
#X connect 65 2 56 0;
#X connect 65 3 57 0;
#X connect 65 4 58 0;
#X connect 65 6 60 0;
#X restore 94 189 pd send-to-arduino----------------------;
#X obj 322 100 vradio 10 1 0 6 THIS_HIDES_THE_OUTLET ARDUINO_TEST_RESET
22 0 -8 0 8 -261682 -1 -1 0;
#X obj 332 100 vradio 10 1 0 6 THIS_HIDES_THE_OUTLET ARDUINO_TEST_RESET
23 0 -8 0 8 -261682 -1 -1 0;
#X obj 100 100 cnv 10 10 60 empty empty Rx 0 23 0 8 -191407 -86277
0;
#X obj 111 100 cnv 10 10 60 empty empty Tx 0 23 0 8 -191407 -13381
0;
#X connect 1 0 21 2;
#X connect 2 0 21 3;
#X connect 3 0 21 4;
#X connect 4 0 21 5;
#X connect 5 0 21 6;
#X connect 6 0 21 7;
#X connect 7 0 21 8;
#X connect 8 0 21 9;
#X connect 9 0 21 10;
#X connect 10 0 21 11;
#X connect 11 0 21 12;
#X connect 12 0 21 13;
#X connect 13 0 21 14;
#X connect 14 0 21 15;
#X connect 15 0 21 16;
#X connect 16 0 21 17;
#X connect 17 0 21 18;
#X connect 18 0 21 19;
#X connect 19 0 21 20;
#X connect 20 0 21 21;
#X connect 21 0 0 0;
#X connect 22 0 21 22;
#X connect 23 0 21 23;
#X coords 0 -1 1 1 242 60 2 100 100;
#X restore 238 61 pd pinMode;
#X text 486 95 servo;
#X text 486 85 pwm;
#X text 486 57 input;
#X text 486 66 output;
#X text 486 76 analog;
#N canvas 0 22 450 300 old 0;
#X msg 95 138 digitalIns 0 0;
#X msg 88 77 analogIns 4 1;
#N canvas 162 133 610 460 serin 0;
#X obj 59 337 outlet;
#X obj 59 266 trigger bang anything;
#X obj 201 286 list;
#X obj 60 61 tgl 15 0 junk_to_hide_inlet ARDUINO_TEST_RESET 0 5 9 1
12 -262130 -1 -1 0 1;
#X obj 75 61 tgl 15 0 junk_to_hide_inlet ARDUINO_TEST_RESET 1 5 9 1
12 -262130 -1 -1 0 1;
#X obj 90 61 tgl 15 0 junk_to_hide_inlet ARDUINO_TEST_RESET 2 5 9 1
12 -262130 -1 -1 0 1;
#X obj 105 61 tgl 15 0 junk_to_hide_inlet ARDUINO_TEST_RESET 3 5 9
1 12 -262130 -1 -1 0 1;
#X obj 120 61 tgl 15 0 junk_to_hide_inlet ARDUINO_TEST_RESET 4 5 9
1 12 -262130 -1 -1 0 1;
#X obj 135 61 tgl 15 0 junk_to_hide_inlet ARDUINO_TEST_RESET 5 5 9
1 12 -262130 -1 -1 0 1;
#X obj 150 61 tgl 15 0 junk_to_hide_inlet ARDUINO_TEST_RESET 6 5 9
1 12 -262130 -1 -1 0 1;
#X obj 165 61 tgl 15 0 junk_to_hide_inlet ARDUINO_TEST_RESET 7 5 9
1 12 -262130 -1 -1 0 1;
#X msg 59 210 analogIns \$1 \$2;
#X msg 35 106 0 \$1;
#X msg 70 106 1 \$1;
#X msg 105 106 2 \$1;
#X msg 140 106 3 \$1;
#X msg 175 106 4 \$1;
#X msg 210 106 5 \$1;
#X msg 245 106 6 \$1;
#X msg 280 106 7 \$1;
#X msg 202 307 set \$1 \$2 \$3;
#X connect 1 0 0 0;
#X connect 1 1 2 0;
#X connect 2 0 20 0;
#X connect 3 0 12 0;
#X connect 4 0 13 0;
#X connect 5 0 14 0;
#X connect 6 0 15 0;
#X connect 7 0 16 0;
#X connect 8 0 17 0;
#X connect 9 0 18 0;
#X connect 10 0 19 0;
#X connect 11 0 1 0;
#X connect 12 0 11 0;
#X connect 13 0 11 0;
#X connect 14 0 11 0;
#X connect 15 0 11 0;
#X connect 16 0 11 0;
#X connect 17 0 11 0;
#X connect 18 0 11 0;
#X connect 19 0 11 0;
#X connect 20 0 0 0;
#X coords 0 -1 1 1 120 16 1 60 60;
#X restore 88 55 pd serin;
#X text 87 38 which analogIns to enable:;
#X text 94 101 which digital ports to enable:;
#N canvas 162 133 610 460 seri 0;
#X obj 59 337 outlet;
#X obj 59 266 trigger bang anything;
#X obj 201 286 list;
#X obj 60 61 tgl 15 0 junk_to_hide_inlet ARDUINO_TEST_RESET 0 5 9 1
12 -260736 -1 -1 0 1;
#X obj 75 61 tgl 15 0 junk_to_hide_inlet ARDUINO_TEST_RESET 1 5 9 1
12 -260736 -1 -1 0 1;
#X obj 90 61 tgl 15 0 junk_to_hide_inlet ARDUINO_TEST_RESET 2 5 9 1
12 -260736 -1 -1 0 1;
#X msg 35 106 0 \$1;
#X msg 70 106 1 \$1;
#X msg 105 106 2 \$1;
#X msg 202 307 set \$1 \$2 \$3;
#X msg 59 210 digitalIns \$1 \$2;
#X connect 1 0 0 0;
#X connect 1 1 2 0;
#X connect 2 0 9 0;
#X connect 3 0 6 0;
#X connect 4 0 7 0;
#X connect 5 0 8 0;
#X connect 6 0 10 0;
#X connect 7 0 10 0;
#X connect 8 0 10 0;
#X connect 9 0 0 0;
#X connect 10 0 1 0;
#X coords 0 -1 1 1 45 16 1 60 60;
#X restore 95 118 pd seri;
#X obj 42 179 outlet;
#X connect 0 0 6 0;
#X connect 1 0 6 0;
#X connect 2 0 1 0;
#X connect 5 0 0 0;
#X restore 183 222 pd old analog/digital controls;
#X text 185 150 <-- get protocol version;
#X text 185 170 <-- get firmware name and version;
#X text 185 131 <-- get connection info;
#X text 181 291 <-- argument sets port #;
#X text 8 1 The [arduino] object works with the Firmata firmware.;
#X text 89 31 configure mode for each pin:;
#X text 185 190 <-- list available serial devices;
#X text 9 389 analog inputs:;
#X text 486 46 NONE;
#X obj 121 324 route analog digital string sysex;
#X msg 28 92 open 3;
#X msg 239 114 pinMode 4 analog;
#X obj 445 557 ctlout 1;
#X text 15 682 (C) Copyright 2006 Free Software Foundation;
#X text 292 683 released under the GNU GPL v2 or later;
#X floatatom 127 509 5 0 0 0 - - -;
#X obj 127 480 * 127;
#X obj 127 562 mtof;
#X floatatom 127 587 5 0 0 0 - - -;
#X obj 127 612 osc~;
#X obj 127 645 dac~;
#N canvas 704 277 499 396 display 0;
#X obj 6 7 inlet;
#X obj 6 28 mapping/resample 100;
#X obj 6 50 outlet;
#X obj 54 50 inlet;
#X obj 54 71 mapping/resample 100;
#X obj 54 93 outlet;
#X obj 103 93 inlet;
#X obj 103 114 mapping/resample 100;
#X obj 103 136 outlet;
#X obj 151 136 inlet;
#X obj 151 157 mapping/resample 100;
#X obj 151 179 outlet;
#X obj 200 179 inlet;
#X obj 200 200 mapping/resample 100;
#X obj 200 222 outlet;
#X obj 247 222 inlet;
#X obj 247 243 mapping/resample 100;
#X obj 247 265 outlet;
#X obj 295 265 inlet;
#X obj 295 286 mapping/resample 100;
#X obj 295 308 outlet;
#X obj 345 308 inlet;
#X obj 345 329 mapping/resample 100;
#X obj 345 351 outlet;
#X obj 60 290 receive WIRING_TEST_RESET;
#X connect 0 0 1 0;
#X connect 1 0 2 0;
#X connect 3 0 4 0;
#X connect 4 0 5 0;
#X connect 6 0 7 0;
#X connect 7 0 8 0;
#X connect 9 0 10 0;
#X connect 10 0 11 0;
#X connect 12 0 13 0;
#X connect 13 0 14 0;
#X connect 15 0 16 0;
#X connect 16 0 17 0;
#X connect 18 0 19 0;
#X connect 19 0 20 0;
#X connect 21 0 22 0;
#X connect 22 0 23 0;
#X connect 24 0 22 0;
#X connect 24 0 19 0;
#X connect 24 0 16 0;
#X connect 24 0 13 0;
#X connect 24 0 10 0;
#X connect 24 0 7 0;
#X connect 24 0 4 0;
#X connect 24 0 1 0;
#X restore 56 430 pd display values without pegging the CPU;
#X floatatom 126 454 5 0 0 0 - - -;
#X connect 2 0 32 0;
#X connect 2 1 4 0;
#X connect 4 0 9 0;
#X connect 5 0 9 0;
#X connect 6 0 9 0;
#X connect 7 2 43 2;
#X connect 9 0 31 0;
#X connect 10 0 9 0;
#X connect 11 0 9 0;
#X connect 13 0 9 0;
#X connect 15 0 33 0;
#X connect 21 0 9 0;
#X connect 31 0 7 0;
#X connect 31 1 8 0;
#X connect 31 2 12 0;
#X connect 31 3 14 0;
#X connect 32 0 9 0;
#X connect 33 0 9 0;
#X connect 37 0 39 0;
#X connect 37 0 34 0;
#X connect 38 0 37 0;
#X connect 39 0 40 0;
#X connect 40 0 41 0;
#X connect 41 0 42 0;
#X connect 41 0 42 1;
#X connect 43 2 44 0;
#X connect 44 0 38 0;
