#N canvas 296 22 1144 674 10;
#X obj -260 -201 gemwin;
#X msg -259 -314 create;
#X msg -222 -286 destroy;
#X obj -171 -254 tgl 15 0 empty empty empty 17 7 0 10 -262144 -1 -1
0 1;
#X text -249 -350 Start Render;
#X obj 184 71 pix_texture;
#X msg 89 -134 open \$1;
#X obj 89 -170 openpanel;
#X msg -58 -147 auto \$1;
#X obj -59 -202 tgl 15 0 empty empty empty 17 7 0 10 -262144 -1 -1
0 1;
#X obj 14 -63 pix_film;
#X obj 89 -206 bng 15 250 50 0 empty empty empty 17 7 0 10 -262144
-1 -1;
#X obj 185 22 pix_mix 0;
#X obj 143 -72 hsl 128 15 0 1 0 0 empty empty empty -2 -8 0 10 -262144
-1 -1 0 1;
#X msg 469 -131 open \$1;
#X obj 469 -167 openpanel;
#X msg 308 -144 auto \$1;
#X obj 308 -174 tgl 15 0 empty empty empty 17 7 0 10 -262144 -1 -1
0 1;
#X obj 394 -60 pix_film;
#X obj 469 -205 bng 15 250 50 0 empty empty empty 17 7 0 10 -262144
-1 -1;
#X obj 391 -144 gemhead 2;
#X obj 11 -147 gemhead 1;
#X obj 184 104 rectangle 4 4;
#X connect 1 0 0 0;
#X connect 2 0 0 0;
#X connect 3 0 0 0;
#X connect 5 0 22 0;
#X connect 6 0 10 0;
#X connect 7 0 6 0;
#X connect 8 0 10 0;
#X connect 9 0 8 0;
#X connect 10 0 12 0;
#X connect 11 0 7 0;
#X connect 12 0 5 0;
#X connect 13 0 12 2;
#X connect 14 0 18 0;
#X connect 15 0 14 0;
#X connect 16 0 18 0;
#X connect 17 0 16 0;
#X connect 18 0 12 1;
#X connect 19 0 15 0;
#X connect 20 0 18 0;
#X connect 21 0 10 0;
