#N canvas 325 22 1087 762 10;
#X obj -586 -419 gemwin;
#X msg -585 -532 create;
#X msg -543 -507 destroy;
#X msg -537 -456 dimen 352 340;
#X obj -521 -483 tgl 15 0 empty empty empty 17 7 0 10 -262144 -1 -1
1 1;
#X text -588 -564 Start Render;
#X msg -233 -578 open \$1;
#X obj -233 -614 openpanel;
#X obj -233 -644 bng 15 250 50 0 empty empty empty 17 7 0 10 -262144
-1 -1;
#X msg -380 -591 auto \$1;
#X obj -380 -621 tgl 15 0 empty empty empty 17 7 0 10 -262144 -1 -1
1 1;
#X obj -300 -590 gemhead 2;
#X obj -53 -527 pix_film;
#X msg 27 -585 open \$1;
#X obj 27 -622 openpanel;
#X msg -113 -592 auto \$1;
#X obj -113 -626 tgl 15 0 empty empty empty 17 7 0 10 -262144 -1 -1
1 1;
#X obj -52 -595 gemhead 3;
#X obj 27 -650 bng 15 250 50 0 empty empty empty 17 7 0 10 -262144
-1 -1;
#X text -319 -665 video 1;
#X text -60 -667 video 2;
#X obj -548 411 rectangle;
#X obj -300 -522 pix_film;
#X obj -549 170 pix_texture;
#X msg -245 -549 colorspace Grey;
#X msg 33 -557 colorspace Grey;
#X obj -208 -296 hsl 128 15 1.27 127 1 0 empty empty empty -2 -8 0
10 -258113 -1 -1 10237 1;
#X obj -199 -267 hsl 128 15 1.27 127 1 0 empty empty empty -2 -8 0
10 -4034 -1 -1 9713 1;
#X obj -176 -239 hsl 128 15 1.27 127 1 0 empty empty empty -2 -8 0
10 -4160 -1 -1 0 1;
#X obj -300 -485 alpha;
#X obj 61 -299 hsl 128 15 0 127 0 0 empty empty empty -2 -8 0 10 -258113
-1 -1 700 1;
#X obj 76 -272 hsl 128 15 0 127 0 0 empty empty empty -2 -8 0 10 -4034
-1 -1 11300 1;
#X obj 111 -248 hsl 128 15 0 127 0 0 empty empty empty -2 -8 0 10 -4160
-1 -1 12700 1;
#X obj -53 -489 alpha;
#X obj -46 -101 pix_gain;
#X msg -10 -150 1;
#X floatatom 23 -191 5 0 0 0 - - -;
#X floatatom 61 -191 5 0 0 0 - - -;
#X floatatom 106 -191 5 0 0 0 - - -;
#X obj 22 -155 bondo 3;
#X obj 22 -127 pack f f f;
#X text 35 -100 Gain Control;
#X text -20 -181 Reset;
#X obj -292 -93 pix_gain;
#X msg -241 -147 1;
#X floatatom -208 -188 5 0 0 0 - - -;
#X floatatom -170 -188 5 0 0 0 - - -;
#X floatatom -125 -188 5 0 0 0 - - -;
#X obj -209 -152 bondo 3;
#X obj -209 -124 pack f f f;
#X text -196 -97 Gain Control;
#X text -248 -170 Reset;
#X obj 129 22 pix_lumaoffset;
#X floatatom 292 -4 5 0 0 0 - - -;
#X floatatom 213 -6 5 0 0 0 - - -;
#X text 249 -10 gap;
#X text 329 -5 offset;
#X msg 146 -38 fill \$1;
#X obj 146 -67 tgl 15 0 empty empty empty 17 7 0 10 -262144 -1 -1 0
1;
#X msg 76 -39 smooth \$1;
#X obj 76 -66 tgl 15 0 empty empty empty 17 7 0 10 -262144 -1 -1 0
1;
#X obj 222 -74 bng 15 250 50 0 empty empty empty 17 7 0 10 -262144
-1 -1;
#X obj 291 -76 bng 15 250 50 0 empty empty empty 17 7 0 10 -262144
-1 -1;
#X msg 222 -49 0;
#X msg 291 -51 0;
#X obj 262 -152 vsl 15 128 0 127 0 0 empty empty empty 0 -9 0 10 -159808
-1 -1 9600 1;
#X obj 360 -152 vsl 15 128 0 127 0 0 empty empty empty 0 -9 0 10 -159808
-1 -1 2300 1;
#X obj -553 16 pix_lumaoffset;
#X floatatom -390 -10 5 0 0 0 - - -;
#X floatatom -464 -7 5 0 0 0 - - -;
#X text -430 -11 gap;
#X text -347 -10 offset;
#X msg -626 -38 fill \$1;
#X obj -626 -69 tgl 15 0 empty empty empty 17 7 0 10 -262144 -1 -1
0 50;
#X msg -563 -42 smooth \$1;
#X obj -563 -70 tgl 15 0 empty empty empty 17 7 0 10 -262144 -1 -1
0 50;
#X obj -434 -154 vsl 15 128 0 127 0 0 empty empty empty 0 -9 0 10 -159808
-1 -1 10200 1;
#X obj -322 -158 vsl 15 128 0 127 0 0 empty empty empty 0 -9 0 10 -159808
-1 -1 1100 1;
#X obj 211 -638 adc~;
#X floatatom -461 366 5 0 0 0 - - -;
#X obj -325 261 bng 15 250 50 0 empty empty empty 17 7 0 10 -262144
-1 -1;
#X text 227 -303 MAKE SURE THIS IS UP!;
#X msg -325 300 4;
#X obj 33 463 rectangle;
#X obj 32 378 pix_texture;
#X floatatom 138 442 5 0 0 0 - - -;
#X floatatom 64 438 5 0 0 0 - - -;
#X obj 177 333 bng 15 250 50 0 empty empty empty 17 7 0 10 -262144
-1 -1;
#X msg 177 358 4;
#X obj 32 332 pix_alpha;
#X floatatom 48 306 5 0 0 0 - - -;
#X obj 50 283 hsl 128 15 0 1 0 0 empty empty empty -2 -8 0 10 -258113
-1 -1 5461 1;
#X obj 28 216 pix_rgba;
#X obj -13 -304 bng 15 250 50 0 empty empty empty 17 7 0 10 -262144
-1 -1;
#X obj -14 -275 bng 15 250 50 0 empty empty empty 17 7 0 10 -262144
-1 -1;
#X obj -13 -242 bng 15 250 50 0 empty empty empty 17 7 0 10 -262144
-1 -1;
#X obj -278 -300 bng 15 250 50 0 empty empty empty 17 7 0 10 -262144
-1 -1;
#X obj -280 -265 bng 15 250 50 0 empty empty empty 17 7 0 10 -262144
-1 -1;
#X obj -282 -238 bng 15 250 50 0 empty empty empty 17 7 0 10 -262144
-1 -1;
#X obj -485 -87 bng 15 250 50 0 empty empty empty 17 7 0 10 -262144
-1 -1;
#X msg -485 -62 0;
#X obj -390 -90 bng 15 250 50 0 empty empty empty 17 7 0 10 -262144
-1 -1;
#X msg -390 -65 0;
#X obj -434 344 hsl 128 15 4 127 0 0 empty empty empty -2 -8 0 10 -257985
-1 -1 0 1;
#X obj -285 347 hsl 128 15 4 127 0 0 empty empty empty -2 -8 0 10 -257985
-1 -1 0 1;
#X obj 85 414 hsl 128 15 4 127 0 0 empty empty empty -2 -8 0 10 -257985
-1 -1 0 1;
#X obj 232 413 hsl 128 15 4 127 0 0 empty empty empty -2 -8 0 10 -257985
-1 -1 0 1;
#X floatatom -310 115 5 0 0 0 - - -;
#X obj 26 191 pix_texture;
#X obj 28 152 pix_movement 0.5;
#X floatatom 122 101 5 0 0 0 - - -;
#X obj 122 125 / 200;
#X obj 122 69 ctlin 52 1;
#X obj 210 -574 bpm;
#X obj 210 -599 env~;
#X floatatom 210 -547 5 0 0 0 - - -;
#X obj -546 320 rotateXYZ;
#X floatatom -390 373 5 0 0 0 - - -;
#X obj 89 -501 smooth;
#X floatatom 82 -433 5 0 0 0 - - -;
#X obj 210 -521 / 25;
#X floatatom 270 293 5 0 0 0 - - -;
#X obj 46 259 / 100;
#X obj -530 209 ctlin 3 1;
#X obj -461 209 ctlin 61 1;
#X obj -553 104 pix_threshold;
#X floatatom -516 80 5 0 0 0 - - -;
#X obj -455 65 hsl 128 15 0 127 0 0 empty empty empty -2 -8 0 10 -159808
-1 -1 4400 1;
#X msg -515 57 0;
#X text 196 -668 AudioInput;
#X text -268 -202 comment;
#X obj -276 -337 ctlin 74;
#X obj -194 -336 ctlin 71;
#X obj -116 -335 ctlin 70;
#X obj 4 -335 ctlin 20;
#X obj 95 -334 ctlin 21;
#X obj 189 -335 ctlin 22;
#X obj 261 -197 ctlin 75;
#X obj 360 -196 ctlin 76;
#X obj 48 238 ctlin 5 1;
#X obj -458 40 ctlin 77;
#X obj -434 -182 ctlin 14;
#X obj -322 -190 ctlin 5;
#X connect 1 0 0 0;
#X connect 2 0 0 0;
#X connect 3 0 0 0;
#X connect 4 0 0 0;
#X connect 6 0 22 0;
#X connect 7 0 6 0;
#X connect 8 0 7 0;
#X connect 9 0 22 0;
#X connect 10 0 9 0;
#X connect 11 0 22 0;
#X connect 12 0 33 0;
#X connect 13 0 12 0;
#X connect 14 0 13 0;
#X connect 15 0 12 0;
#X connect 16 0 15 0;
#X connect 17 0 12 0;
#X connect 18 0 14 0;
#X connect 22 0 29 0;
#X connect 23 0 116 0;
#X connect 24 0 22 0;
#X connect 25 0 12 0;
#X connect 26 0 45 0;
#X connect 27 0 46 0;
#X connect 28 0 47 0;
#X connect 29 0 43 0;
#X connect 30 0 36 0;
#X connect 31 0 37 0;
#X connect 32 0 38 0;
#X connect 33 0 34 0;
#X connect 34 0 52 0;
#X connect 35 0 34 1;
#X connect 36 0 39 0;
#X connect 37 0 39 1;
#X connect 38 0 39 2;
#X connect 39 0 40 0;
#X connect 39 1 40 1;
#X connect 39 2 40 2;
#X connect 40 0 34 2;
#X connect 43 0 67 0;
#X connect 44 0 43 1;
#X connect 45 0 48 0;
#X connect 46 0 48 1;
#X connect 47 0 48 2;
#X connect 48 0 49 0;
#X connect 48 1 49 1;
#X connect 48 2 49 2;
#X connect 49 0 43 2;
#X connect 52 0 109 0;
#X connect 53 0 52 2;
#X connect 54 0 52 1;
#X connect 57 0 52 0;
#X connect 58 0 57 0;
#X connect 59 0 52 0;
#X connect 60 0 59 0;
#X connect 61 0 63 0;
#X connect 62 0 64 0;
#X connect 63 0 54 0;
#X connect 64 0 53 0;
#X connect 65 0 54 0;
#X connect 66 0 53 0;
#X connect 67 0 125 0;
#X connect 68 0 67 2;
#X connect 69 0 67 1;
#X connect 72 0 67 0;
#X connect 73 0 72 0;
#X connect 74 0 67 0;
#X connect 75 0 74 0;
#X connect 76 0 69 0;
#X connect 77 0 68 0;
#X connect 78 0 114 0;
#X connect 79 0 21 1;
#X connect 80 0 82 0;
#X connect 82 0 103 0;
#X connect 82 0 104 0;
#X connect 84 0 83 0;
#X connect 85 0 83 2;
#X connect 86 0 83 1;
#X connect 87 0 88 0;
#X connect 88 0 105 0;
#X connect 88 0 106 0;
#X connect 89 0 84 0;
#X connect 90 0 89 1;
#X connect 90 0 89 2;
#X connect 90 0 89 3;
#X connect 90 0 89 4;
#X connect 91 0 90 0;
#X connect 92 0 89 0;
#X connect 93 0 30 0;
#X connect 94 0 31 0;
#X connect 95 0 32 0;
#X connect 96 0 26 0;
#X connect 97 0 27 0;
#X connect 98 0 28 0;
#X connect 99 0 100 0;
#X connect 100 0 69 0;
#X connect 101 0 102 0;
#X connect 102 0 68 0;
#X connect 103 0 79 0;
#X connect 104 0 117 0;
#X connect 105 0 86 0;
#X connect 106 0 85 0;
#X connect 107 0 103 0;
#X connect 107 0 104 0;
#X connect 108 0 92 0;
#X connect 109 0 108 0;
#X connect 110 0 111 0;
#X connect 111 0 109 1;
#X connect 112 0 110 0;
#X connect 113 0 115 0;
#X connect 114 0 113 0;
#X connect 115 0 120 0;
#X connect 116 0 21 0;
#X connect 117 0 21 2;
#X connect 118 0 119 0;
#X connect 119 0 107 0;
#X connect 119 0 121 0;
#X connect 120 0 118 0;
#X connect 121 0 105 0;
#X connect 121 0 106 0;
#X connect 122 0 91 0;
#X connect 123 0 116 1;
#X connect 124 0 116 2;
#X connect 125 0 23 0;
#X connect 126 0 125 1;
#X connect 127 0 126 0;
#X connect 128 0 126 0;
#X connect 131 0 26 0;
#X connect 132 0 27 0;
#X connect 133 0 28 0;
#X connect 134 0 30 0;
#X connect 135 0 31 0;
#X connect 136 0 32 0;
#X connect 137 0 65 0;
#X connect 138 0 66 0;
#X connect 139 0 122 0;
#X connect 140 0 127 0;
#X connect 141 0 76 0;
#X connect 142 0 77 0;
