#N canvas 848 34 450 300 10;
#X msg 120 65 10;
#X obj 120 114 + 5;
#X floatatom 120 163 5 0 0 0 - - -;
#X text 206 63 Message;
#X text 208 118 Object;
#X text 210 169 Number;
#X connect 0 0 1 0;
#X connect 1 0 2 0;
