#N canvas 290 22 1150 814 10;
#X obj 161 469 gemhead;
#X obj 32 441 block~ 4096;
#X obj 289 542 pix_texture;
#N canvas 0 22 450 300 gemwin 0;
#X obj 132 136 gemwin;
#X obj 67 89 outlet;
#X obj 67 10 inlet;
#X msg 67 70 set destroy;
#X msg 132 112 create \, 1;
#X msg 198 112 destroy;
#X msg 156 71 set create+DSP;
#X obj 67 41 route create+DSP;
#X msg 102 163 \; pd dsp 1;
#X connect 2 0 7 0;
#X connect 3 0 1 0;
#X connect 4 0 0 0;
#X connect 5 0 0 0;
#X connect 6 0 1 0;
#X connect 7 0 3 0;
#X connect 7 0 4 0;
#X connect 7 0 8 0;
#X connect 7 1 6 0;
#X connect 7 1 5 0;
#X restore 135 7 pd gemwin;
#X msg 135 -12 destroy;
#X obj 184 371 osc~ 1;
#X obj 184 390 +~ 1;
#X obj 211 292 noise~;
#X obj 211 315 *~ 0;
#X floatatom 184 353 5 0 0 0 - - -;
#X obj 289 518 pix_sig2pix~ 64 64;
#X obj 289 567 square 4;
#X floatatom 687 288 5 0 0 0 - - -;
#X floatatom 686 386 5 0 0 0 - - -;
#X obj 686 362 /;
#X msg 687 339 4096;
#X obj 686 409 pack f f;
#X msg 686 433 dimen \$2 \$1;
#X obj 162 497 r dim0;
#X obj 331 289 osc~ 1;
#X obj 331 308 +~ 1;
#X obj 460 292 phasor~ 700;
#X obj 223 114 vsl 15 128 0 0.3 0 0 empty empty noise -6 -9 0 10 -258113
-1 -1 1016 1;
#X obj 264 114 vsl 15 128 0 1 0 0 empty empty amp 0 -9 0 10 -258113
-1 -1 190 1;
#X obj 184 115 vsl 15 128 0 1024 0 0 empty empty freq -5 -9 0 10 -258113
-1 -1 9100 1;
#X obj 339 -47 r preset;
#X obj 573 706 s preset;
#X obj 334 115 vsl 15 128 0 1024 0 0 empty empty freq -5 -9 0 10 -4034
-1 -1 3899 1;
#X obj 518 114 vsl 15 128 0 127 0 0 empty empty freq1 -4 -9 0 10 -4160
-1 -1 0 1;
#X obj 108 -65 loadbang;
#X obj 108 -42 t b b;
#X obj 710 114 vsl 15 128 0 512 0 0 empty empty scale -3 -9 0 10 -228856
-1 -1 1400 1;
#X obj 111 129 bng 20 250 50 0 empty empty 1 6 28 0 10 -260097 -1 -1
;
#X obj 634 114 vsl 15 128 0 1 0 0 empty empty blue_amp -8 -9 0 10 -4160
-1 -1 6795 1;
#X obj 408 115 vsl 15 128 0 50 0 0 empty empty lfo 0 -9 0 10 -4034
-1 -1 8400 1;
#X obj 459 391 *~ 0.5;
#X obj 686 456 s dim0;
#X obj 687 311 t b f f;
#X msg 209 -12 create+DSP;
#X obj 477 414 *~;
#X obj 459 435 +~;
#X obj 335 421 *~;
#X obj 184 414 *~ 0.5;
#X obj 389 371 osc~;
#X obj 445 115 vsl 15 128 0 1 0 0 empty empty mod 0 -9 0 10 -4034 -1
-1 775 1;
#X obj 389 393 *~;
#X obj 372 114 vsl 15 128 0 1 0 0 empty empty amp 0 -9 0 10 -4034 -1
-1 0 1;
#X obj 377 344 sig~;
#X obj 558 114 vsl 15 128 0 127 0 0 empty empty freq2 -4 -9 0 10 -4160
-1 -1 1400 1;
#X obj 597 114 vsl 15 128 0 1 0 0 empty empty mod 0 -9 0 10 -4160 -1
-1 10592 1;
#X obj 537 291 phasor~;
#X obj 459 369 +~;
#X obj 479 346 *~;
#X msg 590 537 118 0 1 181 0.5 0 0 16 0 0 1 358.8;
#X obj 340 -21 unpack f f f f f f f f f f f f;
#X floatatom 199 255 5 0 0 0 - - -;
#X floatatom 237 255 5 0 0 0 - - -;
#X floatatom 277 255 5 0 0 0 - - -;
#X floatatom 344 256 5 0 0 0 - - -;
#X floatatom 382 256 5 0 0 0 - - -;
#X floatatom 417 256 5 0 0 0 - - -;
#X floatatom 455 256 5 0 0 0 - - -;
#X floatatom 529 254 5 0 0 0 - - -;
#X floatatom 569 255 5 0 0 0 - - -;
#X floatatom 608 255 5 0 0 0 - - -;
#X floatatom 645 255 5 0 0 0 - - -;
#X floatatom 711 257 5 0 0 0 - - -;
#X msg 576 561 806.2 0.004 0 181 0.133 0 0 87 53 0.834 1 358.8;
#X obj 150 129 bng 20 250 50 0 empty empty 2 6 28 0 10 -260097 -1 -1
;
#X msg 561 585 806.2 0.025 0.354 258 0 33.07 0.062 0 14 0.834 0.165
290.2;
#X obj 111 170 bng 20 250 50 0 empty empty 3 6 28 0 10 -260097 -1 -1
;
#X obj 4 253 s setting;
#X msg 4 163 1;
#X msg 14 173 2;
#X msg 24 183 3;
#X msg 34 193 4;
#X msg 44 203 5;
#X msg 54 213 6;
#X obj 150 170 bng 20 250 50 0 empty empty 4 6 28 0 10 -260097 -1 -1
;
#X obj 113 209 bng 20 250 50 0 empty empty 5 6 28 0 10 -260097 -1 -1
;
#X obj 150 209 bng 20 250 50 0 empty empty 6 6 28 0 10 -260097 -1 -1
;
#X obj 518 458 r setting;
#X obj 518 489 sel 6 5 4 3 2 1;
#X msg 547 610 733.7 0.024 0.015 314.4 0 33.07 0.061 0 14 0.834 0.535
56.44;
#X msg 532 633 733.7 0.024 0 314.4 0 33.07 0.061 0 14 0.834 1 0;
#X msg 518 657 279.2 0 0.204 181 0.5 44.48 0.527 16 28 0.637 0 358.8
;
#X obj 38 78 ctlin 67;
#X obj 123 64 ctlin 26;
#X obj 13 110 ctlin 83;
#X obj 74 108 ctlin 86;
#X obj 27 303 ctlin 87;
#X obj 111 305 ctlin 88;
#X obj 180 37 ctlin 74;
#X obj 537 66 ctlin 15;
#X obj 601 46 ctlin 75;
#X obj 603 70 / 127;
#X obj 659 71 / 127;
#X obj 659 45 ctlin 76;
#X obj 506 45 ctlin 72;
#X obj 446 54 / 127;
#X obj 445 28 ctlin 73;
#X obj 274 50 ctlin 70;
#X obj 270 72 / 127;
#X obj 223 47 ctlin 71;
#X obj 327 63 ctlin 20;
#X obj 337 19 ctlin 21;
#X obj 337 42 / 127;
#X obj 391 47 ctlin 22;
#X obj 751 43 ctlin 77;
#X obj 179 62 * 8.6;
#X obj 194 80 * 0.0023622;
#X obj 326 83 * 8.6;
#X obj 389 75 * 0.393701;
#X obj 734 70 * 4.0315;
#X connect 0 0 10 0;
#X connect 2 0 11 0;
#X connect 3 0 4 0;
#X connect 4 0 3 0;
#X connect 5 0 6 0;
#X connect 6 0 42 0;
#X connect 7 0 8 0;
#X connect 8 0 10 0;
#X connect 9 0 5 0;
#X connect 10 0 2 0;
#X connect 12 0 37 0;
#X connect 13 0 16 0;
#X connect 14 0 13 0;
#X connect 15 0 14 0;
#X connect 16 0 17 0;
#X connect 17 0 36 0;
#X connect 18 0 10 0;
#X connect 19 0 20 0;
#X connect 20 0 41 0;
#X connect 21 0 51 0;
#X connect 22 0 8 1;
#X connect 22 0 56 0;
#X connect 23 0 42 1;
#X connect 23 0 57 0;
#X connect 24 0 9 0;
#X connect 24 0 55 0;
#X connect 25 0 54 0;
#X connect 27 0 19 0;
#X connect 27 0 58 0;
#X connect 28 0 21 0;
#X connect 28 0 62 0;
#X connect 29 0 30 0;
#X connect 30 0 32 0;
#X connect 30 1 4 0;
#X connect 31 0 12 0;
#X connect 31 0 66 0;
#X connect 32 0 38 0;
#X connect 32 0 72 0;
#X connect 33 0 35 1;
#X connect 33 0 65 0;
#X connect 34 0 43 0;
#X connect 34 0 60 0;
#X connect 35 0 40 0;
#X connect 37 0 15 0;
#X connect 37 1 14 1;
#X connect 37 2 16 1;
#X connect 38 0 3 0;
#X connect 39 0 40 1;
#X connect 40 0 10 2;
#X connect 41 0 10 1;
#X connect 42 0 10 0;
#X connect 43 0 45 0;
#X connect 44 0 45 1;
#X connect 44 0 61 0;
#X connect 45 0 41 1;
#X connect 46 0 47 0;
#X connect 46 0 59 0;
#X connect 47 0 41 1;
#X connect 48 0 50 0;
#X connect 48 0 63 0;
#X connect 49 0 52 1;
#X connect 49 0 64 0;
#X connect 50 0 52 0;
#X connect 51 0 35 0;
#X connect 52 0 51 1;
#X connect 53 0 26 0;
#X connect 54 0 24 0;
#X connect 54 1 22 0;
#X connect 54 2 23 0;
#X connect 54 3 27 0;
#X connect 54 4 46 0;
#X connect 54 5 34 0;
#X connect 54 6 44 0;
#X connect 54 7 28 0;
#X connect 54 8 48 0;
#X connect 54 9 49 0;
#X connect 54 10 33 0;
#X connect 54 11 31 0;
#X connect 67 0 26 0;
#X connect 68 0 73 0;
#X connect 69 0 26 0;
#X connect 70 0 74 0;
#X connect 72 0 71 0;
#X connect 73 0 71 0;
#X connect 74 0 71 0;
#X connect 75 0 71 0;
#X connect 76 0 71 0;
#X connect 77 0 71 0;
#X connect 78 0 75 0;
#X connect 79 0 76 0;
#X connect 80 0 77 0;
#X connect 81 0 82 0;
#X connect 82 0 85 0;
#X connect 82 1 84 0;
#X connect 82 2 83 0;
#X connect 82 3 69 0;
#X connect 82 4 67 0;
#X connect 82 5 53 0;
#X connect 83 0 26 0;
#X connect 84 0 26 0;
#X connect 85 0 26 0;
#X connect 86 0 32 0;
#X connect 87 0 68 0;
#X connect 88 0 70 0;
#X connect 89 0 78 0;
#X connect 90 0 79 0;
#X connect 91 0 80 0;
#X connect 92 0 109 0;
#X connect 93 0 48 0;
#X connect 94 0 95 0;
#X connect 95 0 49 0;
#X connect 96 0 33 0;
#X connect 97 0 96 0;
#X connect 98 0 28 0;
#X connect 99 0 44 0;
#X connect 100 0 99 0;
#X connect 101 0 102 0;
#X connect 102 0 23 0;
#X connect 103 0 110 0;
#X connect 104 0 111 0;
#X connect 105 0 106 0;
#X connect 106 0 46 0;
#X connect 107 0 112 0;
#X connect 108 0 113 0;
#X connect 109 0 24 0;
#X connect 110 0 22 0;
#X connect 111 0 27 0;
#X connect 112 0 34 0;
#X connect 113 0 31 0;
#X coords 0 -1 1 1 650 150 1 100 100;
